<?xml version="1.0" standalone="no"?>
<!DOCTYPE svg PUBLIC "-//W3C//DTD SVG 20010904//EN"
 "http://www.w3.org/TR/2001/REC-SVG-20010904/DTD/svg10.dtd">
<svg version="1.0" xmlns="http://www.w3.org/2000/svg"
 width="604.000000pt" height="426.000000pt" viewBox="0 0 604.000000 426.000000"
 preserveAspectRatio="xMidYMid meet">

<g transform="translate(0.000000,426.000000) scale(0.100000,-0.100000)"
fill="#000000" stroke="none">
<path d="M2704 3899 c34 -164 -3 -372 -96 -539 -56 -101 -142 -214 -229 -302
-47 -49 -83 -88 -80 -88 8 0 163 95 222 137 100 70 202 209 253 344 27 71 56
210 56 265 0 19 5 34 11 34 17 0 769 -421 769 -431 0 -17 -20 -8 -177 79 -87
49 -185 104 -218 122 -33 18 -89 49 -125 70 -119 68 -218 120 -229 120 -6 0
-11 -17 -11 -38 0 -113 -89 -341 -173 -444 -26 -32 -44 -58 -41 -58 4 0 54 27
110 60 l104 61 82 -44 c46 -25 144 -76 218 -114 74 -39 210 -109 301 -157 91
-47 169 -83 173 -79 27 27 53 120 70 253 6 49 -13 203 -27 217 -7 6 -66 43
-132 81 -219 125 -769 444 -804 465 l-34 21 7 -35z m581 -533 c62 -26 84 -110
45 -174 -61 -99 -220 -50 -220 68 0 91 86 143 175 106z"/>
<path d="M3183 3355 c-34 -14 -63 -59 -63 -97 0 -27 35 -88 50 -88 13 0 13 13
-1 27 -8 8 -8 17 -1 30 10 16 12 15 22 -11 9 -26 13 -28 25 -15 12 12 12 21 3
51 -13 45 -4 85 22 93 23 7 17 25 -8 25 -9 -1 -31 -7 -49 -15z"/>
<path d="M3290 3321 c14 -27 -7 -39 -25 -15 -13 17 -16 17 -25 4 -5 -8 -7 -22
-4 -30 20 -50 21 -69 7 -89 -8 -12 -21 -21 -29 -21 -8 0 -14 -4 -14 -10 0 -15
47 -12 80 5 32 17 60 61 60 95 0 29 -31 80 -48 80 -9 0 -10 -5 -2 -19z"/>
<path d="M2204 3584 c29 -74 47 -142 57 -216 23 -154 -18 -310 -113 -435 -26
-35 -44 -63 -39 -63 4 0 39 22 78 49 98 69 175 165 247 309 43 85 98 244 88
253 -4 4 -72 30 -152 59 -80 29 -151 55 -159 58 -11 4 -13 1 -7 -14z"/>
<path d="M2760 3171 c-36 -21 -191 -109 -345 -196 -401 -226 -649 -367 -654
-371 -7 -6 41 -22 189 -64 80 -23 166 -48 193 -57 l47 -15 0 -136 0 -135 24
23 c17 15 26 36 28 63 3 37 7 43 48 64 325 165 758 176 1131 27 48 -19 89 -34
93 -34 3 0 6 36 6 80 l0 79 47 21 c26 11 57 23 70 26 l23 6 0 -132 0 -132 -30
-28 c-82 -76 16 -198 104 -129 37 29 37 99 1 127 -25 20 -25 22 -25 170 l0
150 100 39 c55 21 99 42 97 46 -2 8 -1065 547 -1077 547 -3 -1 -34 -18 -70
-39z m978 -949 c3 -16 -2 -22 -17 -22 -26 0 -36 17 -20 36 16 19 33 13 37 -14z"/>
<path d="M1372 2090 c-53 -38 -72 -76 -72 -145 0 -63 17 -104 53 -128 22 -14
106 -42 204 -67 23 -6 56 -22 73 -36 62 -53 27 -160 -59 -184 -96 -25 -196 36
-239 145 -32 83 -42 70 -42 -59 0 -126 6 -138 49 -92 l23 24 41 -24 c35 -20
56 -24 123 -24 74 0 85 3 121 29 50 36 73 84 73 153 0 99 -47 141 -203 179
-105 26 -141 44 -156 75 -45 100 62 187 173 140 45 -19 82 -61 108 -123 35
-86 48 -70 48 57 0 88 -3 110 -14 110 -8 0 -23 -12 -33 -26 l-19 -25 -44 25
c-67 38 -152 37 -208 -4z"/>
<path d="M2878 2113 c-37 -6 -37 -33 0 -33 47 0 52 -14 52 -139 0 -107 -1
-114 -16 -93 -53 77 -173 64 -234 -25 -22 -32 -25 -47 -25 -128 0 -85 2 -94
28 -128 63 -82 163 -91 223 -20 l21 25 7 -36 7 -36 64 0 c72 0 89 19 33 35
l-33 10 -3 288 -2 287 -48 -1 c-26 -1 -59 -4 -74 -6z m7 -279 c33 -35 48 -96
42 -160 -7 -68 -30 -111 -71 -131 -29 -13 -37 -14 -62 -2 -49 23 -65 70 -62
176 3 81 6 94 27 117 34 36 93 36 126 0z"/>
<path d="M1896 2038 c-2 -7 -9 -33 -16 -58 -14 -51 -32 -75 -73 -96 -33 -18
-27 -34 14 -34 l29 0 0 -140 c0 -80 5 -149 11 -163 28 -62 144 -62 184 -1 21
33 32 108 14 102 -7 -2 -16 -19 -20 -37 -13 -64 -67 -92 -102 -53 -14 15 -17
42 -17 155 l0 137 60 0 c53 0 60 2 60 20 0 18 -7 20 -60 20 l-60 0 0 74 c0 41
-5 78 -10 81 -6 3 -12 0 -14 -7z"/>
<path d="M4147 2017 c-10 -64 -34 -106 -71 -124 -45 -21 -46 -41 -3 -45 l32
-3 5 -153 c5 -147 6 -155 29 -173 15 -12 39 -19 68 -19 38 0 50 5 79 34 24 24
34 43 34 65 0 17 0 34 1 38 0 4 -4 9 -9 11 -5 1 -12 -12 -16 -30 -10 -52 -33
-78 -67 -78 -47 0 -60 44 -57 188 l3 117 63 3 c54 3 62 6 62 22 0 18 -7 20
-65 20 l-65 0 0 80 c0 81 -13 108 -23 47z"/>
<path d="M2176 1891 c-34 -4 -61 -11 -64 -18 -2 -8 5 -13 16 -13 44 0 52 -24
52 -147 0 -130 14 -174 61 -198 55 -29 114 -16 176 38 l22 19 6 -36 c7 -33 10
-36 40 -36 42 0 95 11 95 19 0 4 -15 11 -32 16 l-33 10 -5 174 -5 175 -60 -3
c-76 -3 -90 -16 -42 -36 l37 -15 0 -101 c0 -115 -15 -161 -61 -184 -42 -22
-67 -18 -100 14 l-29 29 0 151 c0 83 -3 150 -7 149 -5 -1 -35 -4 -67 -7z"/>
<path d="M3215 1877 c-53 -29 -95 -109 -95 -182 0 -66 39 -147 84 -175 48 -29
151 -28 196 3 46 31 77 74 63 88 -7 7 -17 2 -33 -20 -43 -61 -126 -80 -180
-41 -27 19 -39 46 -54 113 l-6 27 140 0 140 0 0 29 c0 138 -138 224 -255 158z
m119 -11 c42 -17 73 -77 60 -115 -9 -25 -11 -26 -104 -26 l-95 0 3 30 c6 50
33 96 66 111 38 16 31 16 70 0z"/>
<path d="M3573 1893 c-46 -4 -63 -33 -20 -33 43 0 47 -16 47 -165 0 -146 -5
-165 -42 -165 -10 0 -18 -7 -18 -15 0 -12 18 -15 100 -15 82 0 100 3 100 15 0
8 -9 15 -19 15 -39 0 -51 26 -51 113 0 128 24 182 88 202 29 9 73 -9 90 -36
16 -25 28 -181 18 -233 -6 -30 -12 -38 -37 -43 -16 -3 -29 -12 -29 -20 0 -19
191 -15 198 5 2 7 -5 12 -16 12 -44 0 -52 24 -52 151 0 155 -20 199 -96 213
-41 8 -92 -10 -131 -47 l-33 -31 0 26 c0 41 -10 58 -34 56 -11 -1 -40 -3 -63
-5z"/>
<path d="M3328 1193 c-38 -2 -68 -8 -68 -13 0 -6 6 -10 14 -10 8 0 22 -10 30
-22 24 -34 24 -569 0 -592 -8 -9 -22 -16 -30 -16 -8 0 -14 -4 -14 -10 0 -6 42
-10 105 -10 63 0 105 4 105 10 0 6 -6 10 -14 10 -8 0 -22 7 -30 16 -14 13 -16
57 -16 330 0 173 -3 313 -7 312 -5 -1 -38 -3 -75 -5z"/>
<path d="M2210 1112 l35 -17 3 -258 c1 -166 -1 -265 -8 -277 -6 -12 -21 -20
-35 -20 -14 0 -25 -4 -25 -10 0 -6 47 -10 120 -10 73 0 120 4 120 10 0 6 -11
10 -25 10 -37 0 -45 27 -45 159 l0 121 130 0 130 0 0 -128 c0 -132 -5 -152
-42 -152 -10 0 -18 -4 -18 -10 0 -6 45 -10 115 -10 109 0 149 11 86 23 -18 4
-31 14 -35 29 -10 38 -7 485 4 512 6 16 17 26 29 26 11 0 23 5 26 10 4 6 -36
10 -111 10 -71 0 -114 -4 -108 -9 5 -5 18 -11 29 -13 19 -3 20 -12 23 -136 l3
-132 -131 0 -131 0 3 127 3 128 35 17 c35 17 35 17 -90 17 -125 0 -125 0 -90
-17z"/>
<path d="M2978 968 c-83 -22 -138 -116 -138 -235 0 -135 78 -223 197 -223 24
0 57 7 72 14 30 16 91 80 91 96 0 17 -19 11 -30 -10 -25 -46 -123 -66 -169
-34 -35 25 -61 91 -61 157 l0 57 131 0 132 0 -7 46 c-8 63 -33 101 -81 124
-45 22 -79 24 -137 8z m104 -38 c10 -14 21 -49 25 -78 l6 -52 -87 0 -86 0 0
28 c1 36 34 107 57 121 28 17 64 9 85 -19z"/>
<path d="M3744 966 c-17 -8 -40 -26 -52 -41 l-22 -28 0 37 0 36 -80 -2 c-44 0
-80 -5 -80 -10 0 -4 6 -8 13 -8 8 0 21 -8 30 -18 15 -16 17 -50 17 -276 l0
-256 -25 -12 c-14 -6 -25 -14 -25 -17 0 -3 52 -6 115 -6 63 0 115 3 115 7 0 5
-8 8 -18 8 -10 0 -28 7 -40 16 -19 13 -22 24 -22 80 l0 65 30 -16 c65 -34 166
-7 210 55 55 78 67 219 25 308 -20 43 -32 56 -67 72 -50 23 -81 24 -124 6z
m69 -36 c15 -12 31 -38 37 -58 13 -49 13 -197 -1 -246 -22 -81 -100 -121 -157
-80 -21 15 -22 21 -22 170 0 168 6 190 59 219 36 20 54 18 84 -5z"/>
<path d="M4175 965 c-175 -61 -180 -387 -7 -444 86 -29 183 3 218 71 23 44 11
45 -31 4 -30 -31 -42 -36 -80 -36 -81 0 -135 73 -135 184 l0 46 130 0 130 0 0
33 c-1 59 -34 115 -82 137 -51 23 -88 24 -143 5z m92 -13 c19 -12 43 -78 43
-117 l0 -35 -85 0 c-96 0 -94 -2 -70 78 21 68 70 101 112 74z"/>
<path d="M4683 960 c-17 -10 -39 -32 -47 -47 l-15 -28 -1 42 0 43 -80 -1 c-44
0 -80 -5 -80 -10 0 -5 6 -9 13 -9 8 0 21 -8 30 -18 15 -16 17 -45 17 -193 0
-181 -4 -199 -42 -199 -10 0 -18 -4 -18 -10 0 -6 49 -10 126 -10 81 0 123 4
119 10 -3 6 -14 10 -23 10 -10 0 -28 7 -40 16 -21 14 -22 22 -22 155 0 84 4
149 11 162 20 40 62 77 86 77 23 0 23 -1 7 -25 -24 -36 -6 -75 34 -75 59 0 81
62 37 105 -29 30 -68 32 -112 5z"/>
</g>
</svg>
